<svg width="96" height="120" viewBox="0 0 96 120" fill="none" xmlns="http://www.w3.org/2000/svg">
<g clip-path="url(#clip0_89_5301)">
<path d="M0 0.149414V86.4335C0 95.3359 3.55014 103.874 9.86943 110.169C16.1887 116.464 24.7595 120 33.6964 120V33.7159C33.6964 24.8135 30.1462 16.2757 23.8269 9.98079C17.5076 3.68587 8.93683 0.149414 0 0.149414Z" fill="url(#paint0_linear_89_5301)"/>
<path d="M38.082 33.2561V33.5664H96.0121C96.0121 24.6641 92.4619 16.1263 86.1426 9.83138C79.8233 3.53645 71.2525 0 62.3157 0L18.3027 0C24.2893 3.2683 29.2839 8.07958 32.7636 13.9302C36.2433 19.7808 38.0802 26.4557 38.082 33.2561Z" fill="url(#paint1_linear_89_5301)"/>
<path d="M38.082 39.2795V72.846H62.3157C71.2525 72.846 79.8233 69.3095 86.1426 63.0146C92.4619 56.7197 96.0121 48.1819 96.0121 39.2795H38.082Z" fill="url(#paint2_linear_89_5301)"/>
<path d="M0 86.4335C-2.59638e-07 90.841 0.871666 95.2053 2.56521 99.2771C4.25875 103.349 6.74099 107.049 9.87013 110.165C12.9993 113.281 16.714 115.752 20.8022 117.438C24.8904 119.123 29.2718 119.99 33.6964 119.988C10.3859 76.7315 0 0.149414 0 0.149414V86.4335Z" fill="url(#paint3_linear_89_5301)"/>
<path d="M62.3157 72.846C69.6238 72.8636 76.7368 70.4977 82.5682 66.1097C50.9951 62.4657 38.082 39.2795 38.082 39.2795V72.846H62.3157Z" fill="url(#paint4_linear_89_5301)"/>
<path d="M82.5566 6.7363C76.7256 2.35597 69.6189 -0.00918366 62.3157 2.67991e-05H18.3027C24.2893 3.26833 29.2839 8.0796 32.7636 13.9302C36.2433 19.7809 38.0802 26.4557 38.082 33.2561C38.082 33.2561 47.187 4.00041 82.5566 6.7363Z" fill="url(#paint5_linear_89_5301)"/>
</g>
<defs>
<linearGradient id="paint0_linear_89_5301" x1="40.6087" y1="18.381" x2="-5.49947" y2="99.9096" gradientUnits="userSpaceOnUse">
<stop offset="0.02" stop-color="#2A9134"/>
<stop offset="1" stop-color="#054A29"/>
</linearGradient>
<linearGradient id="paint1_linear_89_5301" x1="64.3006" y1="-3.94291" x2="50.8805" y2="35.2651" gradientUnits="userSpaceOnUse">
<stop offset="0.02" stop-color="#2A9134"/>
<stop offset="1" stop-color="#054A29"/>
</linearGradient>
<linearGradient id="paint2_linear_89_5301" x1="76.0712" y1="33.3249" x2="47.3268" y2="70.7692" gradientUnits="userSpaceOnUse">
<stop offset="0.02" stop-color="#2A9134"/>
<stop offset="1" stop-color="#054A29"/>
</linearGradient>
<linearGradient id="paint3_linear_89_5301" x1="12.9823" y1="61.4656" x2="-4.7847" y2="67.9009" gradientUnits="userSpaceOnUse">
<stop stop-color="#054A29"/>
<stop offset="0.97" stop-color="#2A9134"/>
</linearGradient>
<linearGradient id="paint4_linear_89_5301" x1="58.4383" y1="55.1431" x2="43.7624" y2="74.487" gradientUnits="userSpaceOnUse">
<stop stop-color="#054A29"/>
<stop offset="0.97" stop-color="#2A9134"/>
</linearGradient>
<linearGradient id="paint5_linear_89_5301" x1="56.7997" y1="15.7831" x2="44.8761" y2="1.35719" gradientUnits="userSpaceOnUse">
<stop stop-color="#054A29"/>
<stop offset="0.97" stop-color="#2A9134"/>
</linearGradient>
<clipPath id="clip0_89_5301">
<rect width="96" height="120" fill="white"/>
</clipPath>
</defs>
</svg>
